HIERARCHY
ROOT ROOT
{
	OFFSET 0.000000 56.020000 -5.659234
	CHANNELS 6 Xposition Yposition Zposition Xrotation Yrotation Zrotation 
	JOINT C_spine0001_bind_JNT
	{
		OFFSET 0.000000 1.618999 0.000000
		CHANNELS 3 Xrotation Yrotation Zrotation
		JOINT C_spine0002_bind_JNT
		{
			OFFSET 0.000000 4.942001 0.000001
			CHANNELS 3 Xrotation Yrotation Zrotation
			JOINT C_spine0003_bind_JNT
			{
				OFFSET 0.000000 4.942001 -0.000000
				CHANNELS 3 Xrotation Yrotation Zrotation
				JOINT C_neck0001_bind_JNT
				{
					OFFSET 0.000000 17.026009 -0.000000
					CHANNELS 3 Xrotation Yrotation Zrotation
					JOINT C_neck0002_bind_JNT
					{
						OFFSET 0.000000 3.249985 0.000000
						CHANNELS 3 Xrotation Yrotation Zrotation
						JOINT C_head_bind_JNT
						{
							OFFSET 0.000000 5.278008 0.000000
							CHANNELS 3 Xrotation Yrotation Zrotation
							End Site
							{
								OFFSET 0.000000 0.000000 0.000000
							}
						}
					}
				}
				JOINT L_clavicle_bind_JNT
				{
					OFFSET 4.590000 12.067001 0.834000
					CHANNELS 3 Xrotation Yrotation Zrotation
					JOINT L_armUpper0001_bind_JNT
					{
						OFFSET 7.812635 0.512001 -3.452945
						CHANNELS 3 Xrotation Yrotation Zrotation
						JOINT L_armLower0001_bind_JNT
						{
							OFFSET 15.265892 -6.552116 -0.058157
							CHANNELS 3 Xrotation Yrotation Zrotation
							JOINT L_hand0001_bind_JNT
							{
								OFFSET 14.747667 -6.369995 5.049225
								CHANNELS 3 Xrotation Yrotation Zrotation
								End Site
								{
									OFFSET 0.000000 0.000000 0.000000
								}
							}
						}
					}
				}
				JOINT R_clavicle_bind_JNT
				{
					OFFSET -4.590000 12.067001 0.834000
					CHANNELS 3 Xrotation Yrotation Zrotation
					JOINT R_armUpper0001_bind_JNT
					{
						OFFSET -7.812635 0.512001 -3.452945
						CHANNELS 3 Xrotation Yrotation Zrotation
						JOINT R_armLower0001_bind_JNT
						{
							OFFSET -15.265890 -6.552124 -0.058160
							CHANNELS 3 Xrotation Yrotation Zrotation
							JOINT R_hand0001_bind_JNT
							{
								OFFSET -14.746784 -6.369629 5.048937
								CHANNELS 3 Xrotation Yrotation Zrotation
								End Site
								{
									OFFSET 0.000000 0.000000 0.000000
								}
							}
						}
					}
				}
			}
		}
	}
	JOINT C_pelvis0001_bind_JNT
	{
		OFFSET -0.000000 0.000000 0.000000
		CHANNELS 3 Xrotation Yrotation Zrotation
		JOINT L_legUpper0001_bind_JNT
		{
			OFFSET 6.599999 -6.027000 0.539000
			CHANNELS 3 Xrotation Yrotation Zrotation
			JOINT L_legLower0001_bind_JNT
			{
				OFFSET -0.140713 -19.187443 0.040261
				CHANNELS 3 Xrotation Yrotation Zrotation
				JOINT L_foot0001_bind_JNT
				{
					OFFSET -0.132215 -18.028637 -1.138370
					CHANNELS 3 Xrotation Yrotation Zrotation
					JOINT L_foot0002_bind_JNT
					{
						OFFSET 0.007014 -4.693133 9.886524
						CHANNELS 3 Xrotation Yrotation Zrotation
						End Site
						{
							OFFSET 0.000000 0.000000 0.000000
						}
					}
				}
			}
		}
		JOINT R_legUpper0001_bind_JNT
		{
			OFFSET -6.599999 -6.027000 0.539000
			CHANNELS 3 Xrotation Yrotation Zrotation
			JOINT R_legLower0001_bind_JNT
			{
				OFFSET 0.140710 -19.187164 0.040550
				CHANNELS 3 Xrotation Yrotation Zrotation
				JOINT R_foot0001_bind_JNT
				{
					OFFSET 0.132215 -18.028633 -1.138362
					CHANNELS 3 Xrotation Yrotation Zrotation
					JOINT R_foot0002_bind_JNT
					{
						OFFSET -0.007014 -4.693128 9.886505
						CHANNELS 3 Xrotation Yrotation Zrotation
						End Site
						{
							OFFSET 0.000000 0.000000 0.000000
						}
					}
				}
			}
		}
	}
}
MOTION
Frames: 14
Frame Time: 0.033333
3.678918 48.639198 16.361076 0.010424 8.121555 -0.026110 -1.289976 -9.478637 -0.175843 -4.489173 0.401534 -0.271833 3.111338 0.643267 -0.985634 15.421895 -1.293806 -0.108256 0.064322 -0.007078 -0.187375 -8.232047 -2.250361 0.086964 15.364933 4.147214 21.607821 -24.080122 -6.225407 -84.139130 4.950682 19.841219 -0.178127 -4.763908 -16.358391 -28.380239 18.102762 -4.292575 -21.218887 -26.131758 3.855238 85.273155 3.317149 -19.175184 -0.549633 -4.419522 15.375044 27.068996 0.404979 -10.492380 0.686590 -6.734380 1.527601 -3.103404 7.651125 -1.873734 -0.433376 -0.784169 1.396173 2.239575 -0.962318 0.226004 0.669675 -10.247231 0.626638 -3.950762 35.021301 1.496755 0.879412 -0.766787 0.648155 3.908146 -20.894682 1.002610 -2.283652 
3.912091 48.644920 16.596081 0.019656 8.164858 -0.032149 -1.321844 -9.820305 -0.469222 -4.410224 0.390794 -0.248598 3.170698 0.539333 -1.015572 15.393207 -1.197218 -0.081660 0.204315 0.049515 -0.189380 -8.234651 -2.158372 0.035362 15.326650 4.579172 21.573442 -24.727768 -6.555383 -83.877075 5.200014 19.551525 -0.076413 -4.920947 -16.398008 -28.399593 18.228514 -4.537471 -21.311996 -26.728783 3.993394 85.538071 2.963347 -18.941656 -0.613974 -4.547152 15.312038 26.863892 0.342335 -10.896311 0.587456 -5.969633 1.549890 -3.296019 7.067718 -1.994736 -0.432370 -1.061062 1.655600 2.611140 -0.843427 0.265563 0.621595 -12.223549 0.157749 -4.417975 38.146362 0.873777 1.248725 0.458731 -0.080434 4.611446 -19.646187 0.942538 -2.422351 
4.115301 48.640141 16.766394 0.017921 7.908952 -0.031504 -1.293778 -9.652646 -0.566871 -4.420976 0.238514 -0.299567 3.235447 0.479648 -1.119650 15.403318 -1.148928 -0.132996 0.144735 0.153928 -0.094230 -8.149819 -2.066818 0.002054 15.060892 4.803319 21.559553 -25.251368 -6.876236 -83.566383 5.221499 19.493666 -0.006941 -5.028732 -16.225746 -28.379021 18.111774 -4.405484 -21.204374 -26.822138 3.870747 85.502708 2.742583 -18.889786 -0.540884 -4.717272 15.282285 26.420811 0.159823 -10.574745 0.482012 -5.427790 0.993200 -3.597253 6.656076 -2.069759 -0.357338 -0.965325 2.053798 2.783017 -0.876437 0.386447 0.546846 -13.122205 -0.280894 -4.622637 39.917500 -0.324748 1.765404 0.601343 -1.216075 4.226674 -17.036913 0.424462 -1.448362 
4.268555 48.628281 16.905586 0.017729 7.966606 -0.037114 -1.229002 -9.847960 -0.753703 -4.306262 0.268073 -0.279572 3.147445 0.519109 -1.083344 15.531641 -1.227390 -0.164161 0.079452 0.116220 -0.120117 -8.071383 -2.087078 -0.026807 14.696884 4.789304 21.566357 -25.505600 -6.891913 -83.458160 5.362848 19.371799 0.072590 -5.085969 -16.113989 -28.121159 18.045454 -4.286189 -21.259846 -26.576897 3.422739 85.591072 2.744710 -18.505955 -0.512008 -5.201164 15.011261 26.343176 0.243626 -10.787693 0.175137 -5.338928 0.938111 -3.416789 6.751606 -1.921571 -0.360078 -1.318768 1.885059 2.889389 -0.706520 0.453642 0.593504 -13.676258 -0.657067 -4.511051 40.173454 -1.091027 2.117833 -0.666527 -2.525871 3.881933 -14.339602 0.114871 -0.704322 
4.345366 48.682873 17.040358 0.020288 7.813461 -0.028162 -1.082918 -9.784828 -0.799856 -4.354764 0.197491 -0.329012 3.260743 0.504427 -1.192660 15.429379 -1.062201 -0.002869 0.087463 0.101015 -0.209414 -8.060542 -1.940003 -0.051427 14.468775 4.820953 21.431881 -25.825422 -6.860471 -83.232071 5.191648 19.149206 0.246277 -5.351624 -15.871382 -27.977571 17.853140 -3.992887 -21.026543 -26.404942 3.288415 85.438438 2.851878 -18.274443 -0.443274 -5.533705 14.872617 26.257874 0.307322 -10.753492 -0.219865 -5.141596 0.844999 -3.089260 6.471045 -1.919402 -0.268415 -1.156409 1.858421 2.921290 -0.835944 0.430328 0.587765 -14.095188 -0.923012 -4.170347 38.717152 -1.835743 2.483105 -1.985251 -3.189245 3.431317 -12.241152 0.218696 -0.556512 
4.370112 48.733620 17.224302 0.022410 7.685466 -0.031025 -0.933919 -9.705621 -0.921115 -4.226260 0.215089 -0.326257 3.133534 0.574020 -1.156646 15.385359 -1.152854 -0.015962 0.092344 0.132465 -0.192255 -8.094124 -1.998397 0.018775 14.333672 4.770823 21.261106 -25.952061 -6.824674 -82.893089 4.745294 18.937525 0.298522 -5.340146 -15.772467 -27.805609 17.837814 -3.910142 -21.015718 -26.401257 3.331252 85.505569 2.815630 -18.260077 -0.331700 -5.710954 14.856010 26.170166 0.594304 -10.632461 -0.488067 -5.225134 0.981476 -2.726535 6.214650 -1.890401 -0.351746 -1.042257 1.601441 3.001900 -0.786811 0.382426 0.582861 -13.950502 -0.873852 -3.675067 35.726189 -2.247941 2.593768 -2.936489 -3.609988 3.103379 -10.893579 0.088407 -0.416829 
4.342812 48.770397 17.449490 0.022374 7.678566 -0.034875 -0.751033 -9.743313 -1.014543 -4.170796 0.224253 -0.307079 3.169703 0.479236 -1.169532 15.277435 -1.031215 -0.064642 0.066113 0.147700 -0.118796 -8.303868 -1.832144 0.070648 14.118241 4.868484 21.118387 -26.037840 -6.752034 -82.723602 4.569861 18.826836 0.254915 -5.628661 -15.932228 -27.782871 17.753073 -3.692807 -21.018848 -26.113153 3.382812 85.552017 2.828194 -18.330185 -0.244395 -5.750785 14.968690 26.179815 0.797622 -10.587529 -0.713510 -5.048858 0.861687 -2.358326 5.967179 -1.817102 -0.398448 -1.058210 1.590607 3.110078 -0.815030 0.512789 0.393477 -13.819197 -1.025989 -3.244157 32.227776 -2.618006 2.440829 -3.584535 -3.695055 2.689663 -9.510907 0.159620 -0.165891 
4.286010 48.782898 17.709017 0.017593 7.529317 -0.028802 -0.445499 -9.652267 -1.036699 -4.187171 0.220673 -0.368206 3.203199 0.564487 -1.216398 15.072480 -0.996721 -0.014616 0.028825 0.062672 -0.122632 -8.581309 -1.641951 0.034852 14.045558 4.866148 21.202295 -26.046671 -6.702828 -82.537933 4.366515 18.635181 0.173725 -5.799512 -15.937836 -27.906622 17.847429 -3.635179 -20.851624 -26.179878 3.428571 85.440689 2.941206 -18.539484 -0.113261 -5.702523 14.987603 26.109474 1.290268 -10.476443 -0.729878 -5.011604 0.850284 -2.263063 5.530049 -1.625527 -0.323841 -1.082566 1.612862 3.010051 -0.893473 0.303186 0.525859 -13.683552 -1.041274 -2.982495 27.860182 -2.434450 1.928946 -3.657656 -3.503182 2.244783 -7.327749 0.157935 0.160546 
4.170742 48.790974 17.995663 0.022504 7.553609 -0.027687 -0.134361 -9.733730 -1.178588 -4.170439 0.158237 -0.268267 3.185234 0.479750 -1.239637 14.867108 -0.902574 -0.044224 0.117849 0.066589 -0.110295 -8.846260 -1.537016 -0.000016 14.097696 4.993535 21.084114 -26.192490 -6.713367 -82.380455 4.216900 18.457178 0.103971 -5.877929 -15.836182 -27.855707 17.867409 -3.347455 -20.931799 -26.003798 3.368646 85.618073 2.999650 -18.840689 -0.179931 -5.667448 15.065866 25.995842 1.532064 -10.582428 -0.688769 -4.610320 0.795333 -2.165099 4.951802 -1.470213 -0.266886 -1.112852 1.701858 3.031107 -0.947508 0.251482 0.396675 -13.556932 -1.278105 -3.013205 23.840570 -1.663481 1.438203 -3.623505 -2.924195 2.234095 -4.699816 0.328804 0.162816 
4.024531 48.775646 18.336437 0.026249 7.361700 -0.028401 0.168763 -9.539888 -1.235580 -4.149727 0.162404 -0.273848 3.071359 0.453979 -1.242005 14.831690 -0.817513 -0.152827 0.055059 0.015195 -0.078548 -8.958621 -1.491053 -0.033712 14.316142 5.043983 21.266016 -26.221071 -6.534530 -82.552979 4.329260 18.560801 0.128987 -5.741217 -15.921518 -27.891336 18.121145 -3.314156 -21.027836 -25.809803 3.462132 85.820969 2.876863 -19.031576 -0.182991 -5.432539 15.288158 25.929258 1.857504 -10.345775 -0.617729 -4.240467 0.765631 -2.061283 4.428099 -1.382159 -0.256857 -1.499327 1.868780 3.041328 -0.802557 0.285014 0.350150 -13.362945 -1.594787 -3.032703 19.678625 -0.281655 1.104101 -3.125715 -2.399282 2.240801 -2.194937 0.602850 0.392498 
3.894417 48.748188 18.709980 0.019035 7.411613 -0.026930 0.399343 -9.591449 -1.316315 -4.247787 0.095969 -0.165584 3.097264 0.470603 -1.239373 14.793788 -0.852659 -0.099693 0.103731 0.033569 -0.142021 -9.137108 -1.390135 -0.055689 14.465420 5.171102 21.322495 -26.082722 -6.446461 -82.637657 4.430092 18.481159 0.177643 -5.804237 -15.947947 -28.116541 18.229012 -3.294928 -21.059015 -25.662003 3.473589 86.004471 3.012822 -19.338682 -0.384607 -5.465675 15.359691 25.991720 2.108946 -10.341624 -0.560233 -3.838123 0.568777 -2.039984 4.025512 -1.029468 -0.240060 -1.715453 1.797780 3.035278 -0.856868 0.260368 0.332195 -13.048547 -1.735813 -2.973648 16.029364 0.879866 0.931455 -2.360768 -1.519273 2.426739 -1.004890 0.612666 0.595931 
3.761143 48.724812 19.091986 0.019901 7.302019 -0.023860 0.533495 -9.334656 -1.277155 -4.285004 0.095304 -0.123246 3.096029 0.381116 -1.165982 14.723831 -0.801185 -0.170000 0.121794 0.083471 -0.119613 -9.201198 -1.319475 -0.125021 14.664588 5.196014 21.410778 -25.850237 -6.397315 -82.931465 4.593798 18.640196 0.165502 -5.830917 -16.079756 -28.203606 18.408125 -3.395601 -21.148527 -25.503359 3.506336 86.109604 2.862703 -19.648413 -0.552970 -5.224895 15.464181 25.952930 2.245353 -9.964109 -0.490403 -3.341034 0.379449 -1.952931 3.724730 -0.911726 -0.366649 -2.157818 1.914660 3.056189 -0.792380 0.280264 0.334329 -12.611679 -2.037394 -2.647754 12.472256 1.814098 0.927049 -0.956978 -0.579460 2.619485 -0.846734 0.866079 0.475740 
3.671185 48.695076 19.500067 0.019982 7.350319 -0.029671 0.579075 -9.195467 -1.223148 -4.203689 0.000681 0.007740 2.986696 0.344073 -1.105630 14.736701 -0.820513 -0.304953 0.145057 0.050737 -0.097461 -9.132513 -1.301056 -0.117089 14.957464 5.207643 21.313251 -25.690514 -6.336106 -83.175430 4.742863 18.942621 0.124341 -5.663965 -16.200958 -28.210007 18.522087 -3.431653 -21.160398 -25.354240 3.405176 86.009674 2.963140 -20.014921 -0.550496 -5.101491 15.647980 26.001328 2.312813 -9.730764 -0.363482 -2.738936 0.043342 -2.046206 3.413781 -0.683749 -0.305345 -2.391462 1.846462 2.874111 -0.982066 0.262235 0.454153 -12.331811 -2.303590 -2.180424 9.614106 2.468843 0.954614 0.216519 0.282090 2.432435 -0.804035 0.814408 0.374080 
3.553224 48.666870 19.958155 0.020547 7.381226 -0.022596 0.606201 -8.984168 -1.008177 -4.207343 0.015772 -0.013285 2.978893 0.315457 -1.030454 14.686176 -0.772856 -0.305993 0.126673 0.109656 -0.135510 -9.088283 -1.270439 -0.229674 15.229440 5.152172 21.275686 -25.462973 -6.443145 -83.575066 4.936957 19.269423 0.039708 -5.420954 -16.438820 -28.096350 18.644793 -3.579287 -21.031969 -25.049929 3.390530 85.831757 2.840266 -20.207516 -0.707611 -4.956009 15.778078 26.165422 2.381960 -9.377438 -0.266399 -2.166988 -0.346390 -1.910694 3.322097 -0.271744 -0.392280 -2.863830 1.827793 2.738871 -1.025275 0.171497 0.407364 -11.974490 -2.702567 -1.847471 7.075405 2.795322 0.863120 1.290030 0.636231 1.900142 -0.423049 0.702087 0.270139 
